<svg width="325" height="707" viewBox="0 0 325 707" fill="none" xmlns="http://www.w3.org/2000/svg">
<path fill-rule="evenodd" clip-rule="evenodd" d="M34.5908 703.74C-36.4273 687.235 -106.353 632.218 -135.853 568.949C-159.343 518.884 -161.528 494.677 -159.343 331.278C-157.704 186.584 -157.158 176.131 -145.14 146.422C-111.269 60.5964 -33.6958 7.23036 65.1832 0.628382C191.377 -7.6241 295.172 66.0981 319.756 181.083C324.126 201.439 325.765 260.306 324.672 365.388C322.487 511.732 321.941 520.535 309.922 551.344C284.793 614.613 224.154 672.93 162.97 692.186C120.905 705.94 65.7294 710.892 34.5908 703.74ZM22.5723 660.277C-35.881 639.92 -79.5844 600.859 -105.26 544.742C-117.825 517.234 -120.01 506.23 -121.103 442.411L-122.742 370.89L-110.177 386.844C-103.621 396.197 -85.5936 418.204 -70.2974 435.809C24.2112 548.593 54.2573 597.008 60.2665 647.073C63.5443 674.031 62.998 674.031 22.5723 660.277ZM103.97 664.678C97.9607 654.225 122.544 584.904 144.396 551.344C156.414 532.638 183.182 497.978 203.942 474.321C224.701 450.664 250.923 418.754 262.395 403.899C273.867 388.495 284.247 374.741 285.339 373.64C286.978 371.99 287.524 402.799 286.432 442.411C284.793 507.331 283.154 516.683 268.95 548.043C252.562 583.804 211.043 628.917 178.812 644.872C149.859 660.277 107.248 671.28 103.97 664.678ZM44.424 520.535C36.7759 507.881 9.46129 472.67 -16.2145 442.411C-95.9732 349.433 -122.195 299.368 -122.195 242.151C-122.195 170.079 -51.7235 121.115 8.36871 151.924C32.9519 164.027 49.887 195.387 58.6276 242.701L65.1832 280.663L31.313 314.223L-2.01085 348.333L30.7667 382.993L63.5443 417.654L60.8128 480.923L58.0813 544.192L44.424 520.535ZM-62.1031 266.908C-78.4918 248.203 -76.853 217.393 -58.8253 203.089C-27.1403 178.332 14.3779 197.037 14.3779 236.649C14.3779 275.161 -37.5199 295.517 -62.1031 266.908ZM101.785 479.272V414.353L134.562 381.343L167.34 348.883L133.47 314.773L100.146 280.663L106.155 246.002C109.433 226.746 118.174 200.338 124.729 187.134C166.247 105.71 286.978 144.222 286.978 238.85C287.524 298.268 260.756 351.084 189.192 433.058C167.886 457.816 139.479 493.026 126.368 511.182L101.785 544.192V479.272ZM161.877 265.258C146.581 245.452 147.673 221.795 164.062 205.29C192.469 176.681 238.358 195.937 238.358 236.649C238.358 276.261 184.821 296.067 161.877 265.258ZM65.7294 363.187L52.0721 347.783L67.9146 332.928L83.2108 318.074L97.9607 334.579L112.711 351.634L96.3218 365.388L79.9331 379.142L65.7294 363.187ZM58.0813 142.571C58.0813 139.82 46.0629 130.467 32.4056 122.215C5.09096 106.26 -36.9736 101.859 -70.2974 111.212L-86.6862 115.613L-67.566 95.807C-45.168 72.1499 7.27612 45.1918 40.0537 39.6901L63.5443 36.3891V91.9558C63.5443 122.765 61.9054 148.073 60.8128 148.073C59.1739 148.073 58.0813 145.322 58.0813 142.571ZM101.785 91.9558V36.3891L124.729 39.6901C157.507 45.1918 209.951 72.1499 232.895 95.807L252.015 115.613L235.626 111.212C191.377 99.108 138.933 110.111 112.711 137.069C101.785 148.073 101.785 148.073 101.785 91.9558Z" fill="#804627" fill-opacity="0.03"/>
</svg>
